<mxfile host="Electron" modified="2023-10-02T09:28:14.350Z" agent="Mozilla/5.0 (Windows NT 10.0; Win64; x64) AppleWebKit/537.36 (KHTML, like Gecko) draw.io/21.7.5 Chrome/114.0.5735.289 Electron/25.8.1 Safari/537.36" etag="NlE2LPedWu3dBgcAxm0J" version="21.7.5" type="device">
  <diagram name="Страница — 1" id="PjZPqN9hFzpbElE2-6Ex">
    <mxGraphModel dx="1200" dy="674" grid="1" gridSize="10" guides="1" tooltips="1" connect="1" arrows="1" fold="1" page="1" pageScale="1" pageWidth="1654" pageHeight="1169" math="0" shadow="0">
      <root>
        <mxCell id="0" />
        <mxCell id="1" parent="0" />
        <mxCell id="hV92gHsx9a6usJQsOwb1-3" style="rounded=0;orthogonalLoop=1;jettySize=auto;html=1;" edge="1" parent="1" source="hV92gHsx9a6usJQsOwb1-1" target="hV92gHsx9a6usJQsOwb1-2">
          <mxGeometry relative="1" as="geometry" />
        </mxCell>
        <mxCell id="hV92gHsx9a6usJQsOwb1-7" style="rounded=0;orthogonalLoop=1;jettySize=auto;html=1;" edge="1" parent="1" source="hV92gHsx9a6usJQsOwb1-1" target="hV92gHsx9a6usJQsOwb1-6">
          <mxGeometry relative="1" as="geometry" />
        </mxCell>
        <mxCell id="hV92gHsx9a6usJQsOwb1-1" value="main" style="rounded=1;whiteSpace=wrap;html=1;" vertex="1" parent="1">
          <mxGeometry x="420" y="70" width="120" height="60" as="geometry" />
        </mxCell>
        <mxCell id="hV92gHsx9a6usJQsOwb1-5" style="rounded=0;orthogonalLoop=1;jettySize=auto;html=1;" edge="1" parent="1" source="hV92gHsx9a6usJQsOwb1-2" target="hV92gHsx9a6usJQsOwb1-4">
          <mxGeometry relative="1" as="geometry" />
        </mxCell>
        <mxCell id="hV92gHsx9a6usJQsOwb1-9" style="rounded=0;orthogonalLoop=1;jettySize=auto;html=1;" edge="1" parent="1" source="hV92gHsx9a6usJQsOwb1-2" target="hV92gHsx9a6usJQsOwb1-8">
          <mxGeometry relative="1" as="geometry" />
        </mxCell>
        <mxCell id="hV92gHsx9a6usJQsOwb1-11" style="rounded=0;orthogonalLoop=1;jettySize=auto;html=1;" edge="1" parent="1" source="hV92gHsx9a6usJQsOwb1-2" target="hV92gHsx9a6usJQsOwb1-10">
          <mxGeometry relative="1" as="geometry" />
        </mxCell>
        <mxCell id="hV92gHsx9a6usJQsOwb1-13" style="rounded=0;orthogonalLoop=1;jettySize=auto;html=1;" edge="1" parent="1" source="hV92gHsx9a6usJQsOwb1-2" target="hV92gHsx9a6usJQsOwb1-12">
          <mxGeometry relative="1" as="geometry" />
        </mxCell>
        <mxCell id="hV92gHsx9a6usJQsOwb1-2" value="NewServer(db, batchSize).Start()&lt;br&gt;// зачем серверу db и batchSize?" style="rounded=1;whiteSpace=wrap;html=1;" vertex="1" parent="1">
          <mxGeometry x="355" y="260" width="250" height="60" as="geometry" />
        </mxCell>
        <mxCell id="hV92gHsx9a6usJQsOwb1-4" value="repo.NewRepo(db, batchSize)&lt;br&gt;// реализация репозитория на DB" style="rounded=1;whiteSpace=wrap;html=1;" vertex="1" parent="1">
          <mxGeometry x="25" y="260" width="195" height="60" as="geometry" />
        </mxCell>
        <mxCell id="hV92gHsx9a6usJQsOwb1-6" value="DB" style="rounded=1;whiteSpace=wrap;html=1;" vertex="1" parent="1">
          <mxGeometry x="630" y="150" width="120" height="60" as="geometry" />
        </mxCell>
        <mxCell id="hV92gHsx9a6usJQsOwb1-8" value="api.NewPersonAPI(repo)&lt;br&gt;// реализация функционала" style="rounded=1;whiteSpace=wrap;html=1;" vertex="1" parent="1">
          <mxGeometry x="680" y="520" width="200" height="60" as="geometry" />
        </mxCell>
        <mxCell id="hV92gHsx9a6usJQsOwb1-10" value="grpc.NewServer(...)&lt;br&gt;// сетевое взаимодействие" style="rounded=1;whiteSpace=wrap;html=1;" vertex="1" parent="1">
          <mxGeometry x="10" y="450" width="200" height="60" as="geometry" />
        </mxCell>
        <mxCell id="hV92gHsx9a6usJQsOwb1-12" value="pb.RegisterEducationPersonApiServiceServer(grpcServer, personApi)&lt;br&gt;// фукционал" style="rounded=1;whiteSpace=wrap;html=1;" vertex="1" parent="1">
          <mxGeometry x="210" y="520" width="410" height="60" as="geometry" />
        </mxCell>
        <mxCell id="hV92gHsx9a6usJQsOwb1-14" style="rounded=0;orthogonalLoop=1;jettySize=auto;html=1;" edge="1" parent="1" source="hV92gHsx9a6usJQsOwb1-16" target="hV92gHsx9a6usJQsOwb1-21">
          <mxGeometry relative="1" as="geometry" />
        </mxCell>
        <mxCell id="hV92gHsx9a6usJQsOwb1-15" style="rounded=0;orthogonalLoop=1;jettySize=auto;html=1;" edge="1" parent="1" source="hV92gHsx9a6usJQsOwb1-16" target="hV92gHsx9a6usJQsOwb1-23">
          <mxGeometry relative="1" as="geometry" />
        </mxCell>
        <mxCell id="hV92gHsx9a6usJQsOwb1-16" value="main" style="rounded=1;whiteSpace=wrap;html=1;" vertex="1" parent="1">
          <mxGeometry x="390" y="750" width="120" height="60" as="geometry" />
        </mxCell>
        <mxCell id="hV92gHsx9a6usJQsOwb1-17" style="rounded=0;orthogonalLoop=1;jettySize=auto;html=1;" edge="1" parent="1" source="hV92gHsx9a6usJQsOwb1-16" target="hV92gHsx9a6usJQsOwb1-22">
          <mxGeometry relative="1" as="geometry" />
        </mxCell>
        <mxCell id="hV92gHsx9a6usJQsOwb1-18" style="rounded=0;orthogonalLoop=1;jettySize=auto;html=1;" edge="1" parent="1" source="hV92gHsx9a6usJQsOwb1-21" target="hV92gHsx9a6usJQsOwb1-24">
          <mxGeometry relative="1" as="geometry" />
        </mxCell>
        <mxCell id="hV92gHsx9a6usJQsOwb1-19" style="rounded=0;orthogonalLoop=1;jettySize=auto;html=1;" edge="1" parent="1" source="hV92gHsx9a6usJQsOwb1-21" target="hV92gHsx9a6usJQsOwb1-25">
          <mxGeometry relative="1" as="geometry" />
        </mxCell>
        <mxCell id="hV92gHsx9a6usJQsOwb1-20" style="rounded=0;orthogonalLoop=1;jettySize=auto;html=1;" edge="1" parent="1" source="hV92gHsx9a6usJQsOwb1-21" target="hV92gHsx9a6usJQsOwb1-26">
          <mxGeometry relative="1" as="geometry" />
        </mxCell>
        <mxCell id="hV92gHsx9a6usJQsOwb1-21" value="NewServer(repo).Start()&lt;br&gt;// зачем серверу db и batchSize?" style="rounded=1;whiteSpace=wrap;html=1;" vertex="1" parent="1">
          <mxGeometry x="605" y="910" width="250" height="60" as="geometry" />
        </mxCell>
        <mxCell id="hV92gHsx9a6usJQsOwb1-22" value="repo.NewRepo(db, batchSize)&lt;br&gt;// реализация репозитория на DB" style="rounded=1;whiteSpace=wrap;html=1;" vertex="1" parent="1">
          <mxGeometry x="352.5" y="910" width="195" height="60" as="geometry" />
        </mxCell>
        <mxCell id="hV92gHsx9a6usJQsOwb1-23" value="sqlx.Open(...)" style="rounded=1;whiteSpace=wrap;html=1;" vertex="1" parent="1">
          <mxGeometry x="165" y="910" width="120" height="60" as="geometry" />
        </mxCell>
        <mxCell id="hV92gHsx9a6usJQsOwb1-24" value="api.NewPersonAPI(repo)&lt;br&gt;// реализация функционала" style="rounded=1;whiteSpace=wrap;html=1;" vertex="1" parent="1">
          <mxGeometry x="540" y="1190" width="200" height="60" as="geometry" />
        </mxCell>
        <mxCell id="hV92gHsx9a6usJQsOwb1-25" value="grpc.NewServer(...)&lt;br&gt;// сетевое взаимодействие" style="rounded=1;whiteSpace=wrap;html=1;" vertex="1" parent="1">
          <mxGeometry x="310" y="1190" width="200" height="60" as="geometry" />
        </mxCell>
        <mxCell id="hV92gHsx9a6usJQsOwb1-26" value="pb.RegisterEducationPersonApiServiceServer(grpcServer, personApi)&lt;br&gt;// фукционал" style="rounded=1;whiteSpace=wrap;html=1;" vertex="1" parent="1">
          <mxGeometry x="780" y="1190" width="410" height="60" as="geometry" />
        </mxCell>
      </root>
    </mxGraphModel>
  </diagram>
</mxfile>
